<svg version="1.1" xmlns="http://www.w3.org/2000/svg" xmlns:xlink="http://www.w3.org/1999/xlink" x="0px" y="0px" width="100px"
	 height="37.125px" viewBox="0 0 100 37.125" enable-background="new 0 0 100 37.125" xml:space="preserve">
<g id="Layer_1" display="none">
</g>
<g id="Layer_2">
	<g>
		<g>
			<path d="M49.938,6.063c0.518-0.021,1.034,0.017,1.549,0.068l1.545,0.132c1.032,0.077,2.06,0.192,3.086,0.304l0.771,0.083
				l0.386,0.042c0.113-0.004,0.252-0.033,0.377-0.048c0.498-0.102,0.962-0.313,1.433-0.529c0.93-0.447,1.813-0.978,2.689-1.527
				c0.445-0.264,0.87-0.559,1.331-0.798l1.404-0.688c0.96-0.394,1.918-0.812,2.925-1.073c0.99-0.321,2.01-0.522,3.026-0.741
				c1.025-0.155,2.05-0.344,3.087-0.408c1.033-0.114,2.073-0.121,3.111-0.155c1.053,0.107,2.071,0.097,3.099,0.356l1.538,0.308
				l1.501,0.414c1.008,0.255,1.984,0.603,2.972,0.921c1.965,0.661,3.9,1.405,5.827,2.155c0.977,0.373,1.9,0.751,2.915,0.997
				c0.995,0.295,1.995,0.457,3.001,0.558l0.011,0.001c0.107,0.011,0.188,0.104,0.186,0.211l-0.075,2.963
				c-0.002,0.104-0.08,0.19-0.181,0.205l-0.016,0.002c-0.106,0.016-0.246,0.051-0.367,0.1c-0.128,0.037-0.242,0.114-0.362,0.173
				c-0.122,0.057-0.221,0.156-0.332,0.231c-0.117,0.071-0.199,0.186-0.296,0.281c-0.206,0.182-0.33,0.438-0.49,0.661
				c-0.075,0.116-0.117,0.253-0.178,0.378l-0.169,0.384l-0.007,0.017c-0.273,0.66-0.441,1.393-0.599,2.12l-0.44,2.203
				c-0.288,1.474-0.592,2.95-0.978,4.409c-0.381,1.459-0.844,2.902-1.426,4.3c-0.291,0.699-0.613,1.385-0.962,2.059
				c-0.354,0.671-0.745,1.321-1.161,1.957l-0.663,0.927l-0.722,0.882c-0.508,0.566-1.038,1.112-1.614,1.61
				c-0.578,0.492-1.179,0.965-1.825,1.365c-0.313,0.217-0.641,0.41-0.98,0.581c-0.337,0.177-0.663,0.374-1.018,0.514
				c-0.35,0.147-0.693,0.313-1.049,0.445l-1.077,0.367c-0.73,0.197-1.459,0.424-2.209,0.532c-0.374,0.062-0.745,0.137-1.12,0.187
				l-1.129,0.112c-0.752,0.086-1.51,0.063-2.265,0.1l0.017-0.001c-0.699,0.025-1.378,0.007-2.057-0.085
				c-0.68-0.06-1.348-0.211-2.014-0.35c-0.655-0.187-1.322-0.335-1.952-0.6l-0.957-0.359l-0.916-0.453
				c-0.624-0.276-1.197-0.645-1.768-1.018c-0.282-0.189-0.584-0.352-0.85-0.563l-0.791-0.645l-0.791-0.645l-0.712-0.73
				c-0.456-0.502-0.984-0.944-1.364-1.511l-1.228-1.626c-0.359-0.574-0.69-1.168-1.037-1.751l-0.514-0.878l-0.412-0.929
				l-0.824-1.858c-0.262-0.624-0.427-1.284-0.645-1.925c-0.201-0.646-0.419-1.287-0.607-1.936l-0.857-3.964l-0.001-0.006v-0.013
				c0.033-0.127,0.054-0.26,0.102-0.38c0.079-0.105,0.136-0.236,0.245-0.307c0.193-0.178,0.412-0.286,0.594-0.446
				c0.1-0.07,0.163-0.174,0.247-0.259c0.087-0.085,0.119-0.207,0.182-0.309c0.127-0.206,0.14-0.461,0.217-0.689l-0.001,0.007
				c-0.002-0.268-0.05-0.53-0.145-0.778L54.96,11.36c-0.082-0.104-0.189-0.188-0.282-0.282c-0.09-0.101-0.195-0.183-0.319-0.238
				l-0.353-0.196c-0.234-0.136-0.509-0.179-0.762-0.272c-0.13-0.036-0.255-0.096-0.39-0.11l-0.402-0.064l-0.804-0.127l-1.628-0.082
				l1.63,0.059l0.809,0.115l0.404,0.059c0.136,0.013,0.262,0.071,0.395,0.105c0.256,0.091,0.533,0.131,0.773,0.264l0.362,0.195
				c0.127,0.056,0.236,0.138,0.332,0.24c0.098,0.097,0.209,0.183,0.296,0.289l0.213,0.359c0.104,0.258,0.158,0.533,0.164,0.811
				l-0.001,0.008c-0.074,0.238-0.085,0.499-0.215,0.721c-0.063,0.109-0.099,0.237-0.188,0.33c-0.087,0.092-0.157,0.205-0.259,0.279
				c-0.188,0.17-0.416,0.29-0.584,0.452c-0.104,0.067-0.141,0.181-0.212,0.27c-0.039,0.106-0.053,0.224-0.083,0.334l-0.001-0.017
				l0.912,3.937c0.196,0.643,0.422,1.277,0.632,1.916c0.224,0.634,0.403,1.285,0.663,1.904l0.827,1.838l0.413,0.919l0.514,0.866
				c0.345,0.575,0.675,1.16,1.033,1.727l1.221,1.599c0.377,0.558,0.899,0.989,1.352,1.482l0.704,0.716l0.781,0.63l0.781,0.63
				c0.262,0.208,0.561,0.364,0.838,0.55c0.562,0.363,1.126,0.723,1.741,0.99l0.9,0.44l0.94,0.347
				c0.618,0.258,1.273,0.399,1.916,0.579c0.653,0.133,1.308,0.278,1.973,0.332c0.659,0.088,1.336,0.1,1.983,0.074h0.008l0.009-0.001
				c0.743-0.04,1.492-0.021,2.231-0.109l1.11-0.115c0.368-0.052,0.732-0.127,1.099-0.189c0.735-0.109,1.447-0.336,2.161-0.531
				l1.051-0.364c0.347-0.132,0.68-0.295,1.021-0.44c0.345-0.137,0.661-0.331,0.988-0.504c0.33-0.169,0.647-0.358,0.951-0.571
				c0.628-0.392,1.208-0.854,1.768-1.336c0.559-0.487,1.071-1.021,1.563-1.574l0.698-0.863l0.643-0.907
				c0.402-0.623,0.782-1.261,1.125-1.919c0.338-0.661,0.65-1.336,0.934-2.023c0.562-1.378,1.015-2.8,1.404-4.24
				c0.389-1.441,0.697-2.904,0.992-4.375l0.453-2.209c0.164-0.736,0.332-1.476,0.638-2.202l-0.007,0.016l0.187-0.419
				c0.067-0.138,0.114-0.284,0.198-0.414c0.179-0.252,0.32-0.53,0.556-0.742c0.111-0.109,0.207-0.235,0.342-0.32
				c0.13-0.089,0.245-0.198,0.388-0.268s0.275-0.155,0.431-0.2c0.152-0.058,0.296-0.1,0.48-0.123l-0.196,0.207l0.089-2.963
				l0.195,0.212c-1.048-0.106-2.101-0.29-3.087-0.587c-0.998-0.246-1.994-0.654-2.946-1.024c-1.925-0.761-3.85-1.511-5.802-2.18
				c-0.98-0.321-1.953-0.672-2.95-0.931l-1.488-0.418l-1.503-0.31c-0.984-0.26-2.055-0.258-3.056-0.368
				c-1.029,0.029-2.062,0.029-3.086,0.139c-1.029,0.059-2.046,0.24-3.063,0.39c-1.008,0.211-2.021,0.405-3.002,0.719
				c-0.498,0.134-0.989,0.285-1.467,0.479C65.561,2.94,65.064,3.091,64.6,3.308l-1.393,0.657c-0.461,0.229-0.894,0.521-1.341,0.777
				c-0.883,0.535-1.784,1.06-2.727,1.495c-0.469,0.21-0.961,0.424-1.478,0.519c-0.131,0.014-0.249,0.04-0.392,0.043l-0.386-0.047
				l-0.771-0.094c-1.028-0.127-2.055-0.257-3.085-0.35l-1.545-0.154C50.97,6.096,50.456,6.05,49.938,6.063z"/>
		</g>
		<path d="M50.021,9.987h-0.041c-4.967,0-5.33,1.619-5.33,2.496c0.274,1.758,1.481,1.318,1.563,2.389
			c-4.116,23.051-20.21,21.65-20.21,21.65C6.287,36.522,6.904,16.312,4.97,11.95C4.188,9.726,2.582,9.603,2.582,9.603L2.5,6.64
			c0,0,1.646-0.082,3.951-0.824c2.306-0.74,11.525-4.939,16.876-4.939c5.352,0,11.032,1.154,15.395,4.117
			c0,0,2.854,1.783,3.979,1.756c1.006-0.023,5.17-0.686,6.825-0.688c0,0,0.021,0.001,0.411,0.002 M25.332,2.88
			c-9.396,0-18.387,3.129-17.014,16.246c0.934,8.922,9.659,16.244,17.014,16.244c9.396,0,16.736-7.277,17.013-16.244
			C42.674,8.423,34.728,2.88,25.332,2.88z"/>
		<g>
			<path d="M57.68,19.125c0,0,0.035,0.41,0.102,1.182c0.014,0.389,0.109,0.856,0.213,1.406c0.078,0.556,0.267,1.172,0.47,1.863
				c0.442,1.367,1.162,2.985,2.338,4.608c1.17,1.621,2.824,3.216,4.926,4.477c2.097,1.254,4.648,2.178,7.446,2.435
				c1.392,0.124,2.859,0.078,4.285-0.233c1.435-0.343,2.845-0.901,4.206-1.615c1.344-0.749,2.623-1.66,3.816-2.706
				c1.157-1.082,2.256-2.267,3.164-3.611c0.875-1.36,1.646-2.811,2.156-4.367c0.487-1.566,0.809-3.164,0.825-4.827
				c0.111-1.653-0.061-3.275-0.364-4.876c-0.417-1.565-1.001-3.094-1.971-4.37c-0.971-1.264-2.197-2.294-3.558-3.068
				c-1.378-0.75-2.862-1.236-4.346-1.603c-2.994-0.611-6-0.819-8.806-0.578c-2.772,0.276-5.386,1.006-7.525,2.195
				c-2.141,1.193-3.792,2.802-4.898,4.458c-1.104,1.66-1.759,3.32-2.034,4.733c-0.194,0.695-0.245,1.34-0.318,1.895
				c-0.088,0.555-0.096,1.031-0.1,1.418C57.689,18.713,57.68,19.125,57.68,19.125z M57.631,19.127c0,0,0.004-0.414,0.014-1.189
				c-0.001-0.388,0.001-0.866,0.084-1.424c0.066-0.559,0.11-1.207,0.299-1.909c0.274-1.419,0.859-3.117,1.942-4.835
				c1.079-1.714,2.731-3.396,4.896-4.673c2.166-1.275,4.814-2.096,7.687-2.365c0.722-0.082,1.421-0.074,2.17-0.108
				c0.733,0.025,1.476,0.005,2.225,0.07c1.501,0.067,3.027,0.292,4.559,0.621C83.023,3.7,84.547,4.212,85.97,5
				c1.403,0.815,2.685,1.895,3.676,3.23c0.988,1.348,1.566,2.939,1.965,4.552c0.285,1.633,0.43,3.324,0.29,4.969
				c-0.034,1.647-0.383,3.319-0.895,4.881c-0.535,1.57-1.331,3.026-2.229,4.387c-0.926,1.347-1.992,2.573-3.152,3.679
				c-1.189,1.074-2.47,2.017-3.822,2.797c-1.371,0.746-2.8,1.334-4.265,1.705c-1.49,0.344-2.957,0.404-4.397,0.3
				c-2.874-0.196-5.494-1.189-7.617-2.505c-2.133-1.323-3.753-3.017-4.897-4.685c-1.154-1.674-1.806-3.332-2.251-4.705
				c-0.198-0.697-0.381-1.318-0.454-1.879c-0.099-0.555-0.189-1.025-0.2-1.414C57.661,19.54,57.631,19.127,57.631,19.127z"/>
		</g>
	</g>
</g>
<g id="Layer_3">
</g>
</svg>
